<svg xmlns="http://www.w3.org/2000/svg" viewBox="0 0 177.82 39.49"><defs><style>.cls-1{fill:#1a5d39;}</style></defs><g id="Layer_2" data-name="Layer 2"><g id="Layer_1-2" data-name="Layer 1"><path class="cls-1" d="M7.42,32.81A3.39,3.39,0,0,0,8,35.16a4.15,4.15,0,0,0,2.36.81l2.2.16v1.51c-.47,0-1,0-1.72-.06l-2.09,0-2.1,0-1.7,0-1.76,0q-.84,0-1.41.06V36.13l1.31-.08a5.78,5.78,0,0,0,1.8-.46,1.54,1.54,0,0,0,.79-.93,6.6,6.6,0,0,0,.19-1.85V28H7.42Zm17.27,5.1L8,14.06H7.42V28H5.87V15.11a6.91,6.91,0,0,0-.19-1.9,1.39,1.39,0,0,0-.81-.88,7.93,7.93,0,0,0-1.82-.47l-1.23-.07V10.28c.49,0,1.1,0,1.83,0l2.34,0c.82,0,1.61,0,2.36,0h.58c.72,0,1.37,0,2,0l1.58-.08L24.3,27.43h.58V15.11a4,4,0,0,0-.52-2.44,3.39,3.39,0,0,0-2.18-.81l-1.28-.07V10.28l2.13.08,2.59,0c.56,0,1.14,0,1.72,0l1.74,0c.58,0,1.05,0,1.41,0v1.51l-1.32.07a5.53,5.53,0,0,0-1.75.47,1.51,1.51,0,0,0-.8.92,6.68,6.68,0,0,0-.19,1.86v22.8Z" transform="translate(-1.78 -7.38)"/><path class="cls-1" d="M36.9,38.18a6.1,6.1,0,0,1-4.11-1.34,4.44,4.44,0,0,1-1.57-3.57,4.54,4.54,0,0,1,.89-2.92,6.82,6.82,0,0,1,2.24-1.78,19.13,19.13,0,0,1,2.84-1.14c1-.31,2-.59,2.88-.87a7.83,7.83,0,0,0,2.24-1A2,2,0,0,0,43.24,24l.08,2a2,2,0,0,1-1,1.19q-.78.46-1.68.93c-.61.31-1.2.63-1.78,1a4.73,4.73,0,0,0-1.47,1.31,3.49,3.49,0,0,0-.6,2.13,2.88,2.88,0,0,0,.74,2.1,2.7,2.7,0,0,0,2,.76,4,4,0,0,0,2.06-.58A5.73,5.73,0,0,0,43.47,33l0,1.58a7.93,7.93,0,0,1-2.82,2.75A7.8,7.8,0,0,1,36.9,38.18Zm6.18-10.51V22.6a4.09,4.09,0,0,0-.9-2.93,3.84,3.84,0,0,0-2.84-.93,5.8,5.8,0,0,0-2.19.35c-.55.23-.83.55-.83,1a1.66,1.66,0,0,0,.33.89c.22.34.43.68.62,1A2.17,2.17,0,0,1,37.56,23a1.74,1.74,0,0,1-.75,1.45,3.1,3.1,0,0,1-1.88.56,2.87,2.87,0,0,1-2.12-.77,2.68,2.68,0,0,1-.78-2,3.9,3.9,0,0,1,1.07-2.76,7,7,0,0,1,3-1.78,14.82,14.82,0,0,1,4.52-.63c2.81,0,4.8.62,6,1.85s1.78,3.22,1.78,6v2.75Zm5.34,6.72a2.29,2.29,0,0,0,.29,1.31,1,1,0,0,0,.94.43,2.57,2.57,0,0,0,1.07-.25,6.41,6.41,0,0,0,1.1-.72l.65,1.28a8.29,8.29,0,0,1-5.14,1.74,4.86,4.86,0,0,1-3.18-.89,3.38,3.38,0,0,1-1.07-2.75V27.67h5.34Z" transform="translate(-1.78 -7.38)"/><path class="cls-1" d="M58.08,27.67V22.29a3.42,3.42,0,0,0-.56-2.24,3.39,3.39,0,0,0-2.07-.81l-1-.07V17.66l1.63.06,1.66,0c1.16,0,2.19,0,3.09-.14s1.76-.21,2.59-.37V27.67Zm-.55,9.89-3.09.08V36.13l1.09,0a3,3,0,0,0,2-.79,3.36,3.36,0,0,0,.55-2.19V27.67h5.33v5.44A3.42,3.42,0,0,0,64,35.3a3.1,3.1,0,0,0,2.09.79l1,0v1.51L64,37.56c-1,0-2.06,0-3.25,0S58.49,37.53,57.53,37.56ZM60.7,13.72a3.57,3.57,0,0,1-2.37-.83,2.81,2.81,0,0,1-1-2.26,2.76,2.76,0,0,1,1-2.23,3.64,3.64,0,0,1,2.39-.83,3.72,3.72,0,0,1,2.46.83,2.8,2.8,0,0,1,1,2.23,2.79,2.79,0,0,1-1,2.26A3.79,3.79,0,0,1,60.7,13.72Z" transform="translate(-1.78 -7.38)"/><path class="cls-1" d="M64.61,46.87V45.48q3.44-.07,5-2.11T71.1,36.9V27.67h5.33V35.9a18.45,18.45,0,0,1-.52,4.59,7.44,7.44,0,0,1-5.35,5.63A19.74,19.74,0,0,1,64.61,46.87Zm6.49-19.2V22.29a3.64,3.64,0,0,0-.52-2.24,3.24,3.24,0,0,0-2.07-.81l-1-.07V17.66l1.61.06,1.6,0c1.16,0,2.21,0,3.15-.14a24,24,0,0,0,2.57-.37V27.67Zm2.66-13.95a3.57,3.57,0,0,1-2.37-.83,2.81,2.81,0,0,1-1-2.26,2.76,2.76,0,0,1,1-2.23,3.66,3.66,0,0,1,2.39-.83,3.72,3.72,0,0,1,2.46.83,2.8,2.8,0,0,1,1,2.23,2.79,2.79,0,0,1-1,2.26A3.79,3.79,0,0,1,73.76,13.72Z" transform="translate(-1.78 -7.38)"/><path class="cls-1" d="M86.28,38.18a6.1,6.1,0,0,1-4.11-1.34,4.44,4.44,0,0,1-1.57-3.57,4.54,4.54,0,0,1,.89-2.92,6.82,6.82,0,0,1,2.24-1.78,19.13,19.13,0,0,1,2.84-1.14c1-.31,2-.59,2.88-.87a7.7,7.7,0,0,0,2.24-1A2,2,0,0,0,92.62,24l.08,2a1.94,1.94,0,0,1-1,1.19q-.77.46-1.68.93c-.61.31-1.2.63-1.78,1a4.73,4.73,0,0,0-1.47,1.31,3.49,3.49,0,0,0-.59,2.13,2.87,2.87,0,0,0,.73,2.1,2.7,2.7,0,0,0,2,.76,4.1,4.1,0,0,0,2.07-.58A5.81,5.81,0,0,0,92.85,33l0,1.58a7.93,7.93,0,0,1-2.82,2.75A7.78,7.78,0,0,1,86.28,38.18Zm6.19-10.51V22.6a4.1,4.1,0,0,0-.91-2.93,3.82,3.82,0,0,0-2.84-.93,5.83,5.83,0,0,0-2.19.35c-.55.23-.83.55-.83,1a1.66,1.66,0,0,0,.33.89c.22.34.43.68.62,1A2.17,2.17,0,0,1,86.94,23a1.74,1.74,0,0,1-.75,1.45,3.1,3.1,0,0,1-1.88.56,2.87,2.87,0,0,1-2.12-.77,2.68,2.68,0,0,1-.78-2,3.9,3.9,0,0,1,1.07-2.76,7.07,7.07,0,0,1,3-1.78A14.82,14.82,0,0,1,90,17.12q4.22,0,6,1.85t1.78,6v2.75Zm5.33,6.72a2.37,2.37,0,0,0,.29,1.31,1,1,0,0,0,.94.43,2.54,2.54,0,0,0,1.07-.25,6.41,6.41,0,0,0,1.1-.72l.65,1.28a8.29,8.29,0,0,1-5.13,1.74,4.89,4.89,0,0,1-3.19-.89,3.38,3.38,0,0,1-1.06-2.75V27.67H97.8Z" transform="translate(-1.78 -7.38)"/><path class="cls-1" d="M99.46,46.87V45.36a8,8,0,0,0,3.86-1,5.15,5.15,0,0,0,2.13-2.78,14.89,14.89,0,0,0,.66-4.85V28H112V34a18.38,18.38,0,0,1-1.28,7.42,8,8,0,0,1-4,4.14A17.38,17.38,0,0,1,99.46,46.87ZM106.11,28V15.11a3.74,3.74,0,0,0-.55-2.42,3.6,3.6,0,0,0-2.31-.75l-2-.15V10.28c.64,0,1.37,0,2.18,0l2.59,0c.91,0,1.8,0,2.65,0h.92c.8,0,1.6,0,2.4,0l2.28,0c.72,0,1.34,0,1.85,0v1.51l-1.27.07a7.57,7.57,0,0,0-1.76.47,1.53,1.53,0,0,0-.83.88,6,6,0,0,0-.23,1.9V28Z" transform="translate(-1.78 -7.38)"/><path class="cls-1" d="M126.31,38.18A11.13,11.13,0,0,1,121.14,37a8.31,8.31,0,0,1-3.52-3.5,12.12,12.12,0,0,1-1.27-5.85,12.24,12.24,0,0,1,1.27-5.88,8.21,8.21,0,0,1,3.54-3.51,11,11,0,0,1,5.15-1.16,10.87,10.87,0,0,1,5.13,1.16,8.17,8.17,0,0,1,3.47,3.51,12.36,12.36,0,0,1,1.26,5.88,12.21,12.21,0,0,1-1.26,5.87A8.31,8.31,0,0,1,131.42,37,11,11,0,0,1,126.31,38.18Zm0-1.51a3.52,3.52,0,0,0,3-2.16q1.22-2.17,1.22-6.84c0-3.2-.41-5.5-1.22-6.92a3.52,3.52,0,0,0-3-2.13,3.56,3.56,0,0,0-3.11,2.13c-.82,1.42-1.22,3.72-1.22,6.92s.4,5.46,1.22,6.87A3.56,3.56,0,0,0,126.28,36.67Z" transform="translate(-1.78 -7.38)"/><path class="cls-1" d="M140.69,27.67V12.44a3.5,3.5,0,0,0-.56-2.26,3.31,3.31,0,0,0-2.07-.83l-1,0V7.81l1.62.05c.49,0,1,0,1.66,0,1.16,0,2.19,0,3.09-.13s1.77-.22,2.59-.37V27.67ZM146,36.24a8,8,0,0,0-2,.26,7.72,7.72,0,0,0-1.89.73,11.46,11.46,0,0,0-1.59,1l-1-1.27a4.09,4.09,0,0,0,.7-.95,3.88,3.88,0,0,0,.36-1.22,11,11,0,0,0,.1-1.62V27.67H146v8.57Zm5.84-19.08a7.32,7.32,0,0,1,4.32,1.25A8.26,8.26,0,0,1,159,22a13.68,13.68,0,0,1,1,5.48,13.61,13.61,0,0,1-1.12,5.78,8.35,8.35,0,0,1-3.17,3.69,9,9,0,0,1-4.83,1.27,7.63,7.63,0,0,1-3.42-.71,5.58,5.58,0,0,1-2.18-1.8l.38-1.39a4.35,4.35,0,0,0,7.44-.17,12.84,12.84,0,0,0,1.3-6.47,13,13,0,0,0-1.14-6.09,3.6,3.6,0,0,0-3.31-2.11,4.29,4.29,0,0,0-2.53.82,4.91,4.91,0,0,0-1.72,2.35l-.34-1a6.38,6.38,0,0,1,2.47-3.3A7.1,7.1,0,0,1,151.86,17.16Z" transform="translate(-1.78 -7.38)"/><path class="cls-1" d="M172.37,38.18a9.61,9.61,0,0,1-2.78-.35,14.87,14.87,0,0,1-1.83-.68,3.21,3.21,0,0,0-1.34-.33c-.61,0-1.07.39-1.35,1.16H163.6c.05-.69.09-1.4.12-2.12s0-1.55,0-2.49,0-2,0-3.15h1.51A9,9,0,0,0,167.58,35a5.9,5.9,0,0,0,4.25,1.64,4.45,4.45,0,0,0,2.75-.77,2.58,2.58,0,0,0,1-2.17,2.55,2.55,0,0,0-1.08-2.08A11.72,11.72,0,0,0,170.67,30a11.78,11.78,0,0,1-5-2.76,5.77,5.77,0,0,1-1.6-4.15,5.58,5.58,0,0,1,1.77-4.35,6.78,6.78,0,0,1,4.72-1.6,9.19,9.19,0,0,1,2.68.33,13.5,13.5,0,0,1,1.82.69,3,3,0,0,0,1.29.37.79.79,0,0,0,.66-.29,4,4,0,0,0,.5-.91H179a16.47,16.47,0,0,0-.15,1.76c0,.6-.05,1.31-.06,2.12s0,1.79.06,2.92H177.4A8,8,0,0,0,175.1,20a5.47,5.47,0,0,0-3.73-1.41,3.71,3.71,0,0,0-2.47.72,2.5,2.5,0,0,0-.85,2,2.73,2.73,0,0,0,1.14,2.24,12.41,12.41,0,0,0,4,1.7,11,11,0,0,1,4.87,2.49,5.54,5.54,0,0,1,1.51,4.08,5.84,5.84,0,0,1-1.91,4.62A7.8,7.8,0,0,1,172.37,38.18Z" transform="translate(-1.78 -7.38)"/></g></g></svg>