<svg xmlns="http://www.w3.org/2000/svg" viewBox="0 0 213.53 53.31"><defs><style>.cls-1{fill:#fbfbf9;}</style></defs><g id="Layer_2" data-name="Layer 2"><g id="Layer_1-2" data-name="Layer 1"><path class="cls-1" d="M10,44.28c0,1.6.26,2.66.79,3.18A5.73,5.73,0,0,0,14,48.56l3,.21v2c-.62,0-1.4-.06-2.32-.08l-2.82,0L9,50.64l-2.29,0-2.38,0c-.75,0-1.38.05-1.9.08v-2l1.77-.11A8,8,0,0,0,6.6,48a2.08,2.08,0,0,0,1.07-1.26,9.08,9.08,0,0,0,.26-2.5V37.76H10Zm23.32,6.89L10.74,19H10V37.76H7.93V20.39a9.34,9.34,0,0,0-.26-2.55,1.87,1.87,0,0,0-1.1-1.2A10.49,10.49,0,0,0,4.12,16l-1.67-.1v-2c.66,0,1.49,0,2.48.06S7,14,8.08,14l3.19,0h.78c1,0,1.86,0,2.66,0l2.14-.11L32.81,37h.78V20.39a5.35,5.35,0,0,0-.71-3.28A4.55,4.55,0,0,0,29.94,16l-1.72-.1v-2c.69,0,1.65.07,2.87.11s2.38,0,3.49,0l2.32,0c.78,0,1.57,0,2.35-.07s1.41-.06,1.9-.06v2l-1.77.1a7.43,7.43,0,0,0-2.37.63,2,2,0,0,0-1.07,1.25,8.75,8.75,0,0,0-.26,2.5V51.17Z" transform="translate(-2.4 -9.96)"/><path class="cls-1" d="M49.81,51.53a8.25,8.25,0,0,1-5.55-1.8,6,6,0,0,1-2.12-4.82A6.07,6.07,0,0,1,43.34,41a9,9,0,0,1,3-2.4A25.31,25.31,0,0,1,50.2,37c1.34-.42,2.64-.81,3.89-1.17a10.82,10.82,0,0,0,3-1.33,2.75,2.75,0,0,0,1.25-2.19L58.47,35a2.66,2.66,0,0,1-1.31,1.61c-.69.42-1.45.84-2.26,1.26s-1.62.85-2.4,1.3a6.37,6.37,0,0,0-2,1.77,4.78,4.78,0,0,0-.8,2.87,3.88,3.88,0,0,0,1,2.84,3.67,3.67,0,0,0,2.76,1,5.43,5.43,0,0,0,2.79-.78,7.68,7.68,0,0,0,2.43-2.4l0,2.14a10.72,10.72,0,0,1-3.81,3.7A10.46,10.46,0,0,1,49.81,51.53Zm8.35-14.19V30.51a5.46,5.46,0,0,0-1.23-4A5.15,5.15,0,0,0,53.1,25.3a7.62,7.62,0,0,0-3,.47c-.75.31-1.12.74-1.12,1.3a2.31,2.31,0,0,0,.44,1.2c.3.45.57.91.84,1.38a2.93,2.93,0,0,1,.39,1.43,2.32,2.32,0,0,1-1,2,4.09,4.09,0,0,1-2.53.76,3.87,3.87,0,0,1-2.87-1,3.61,3.61,0,0,1-1-2.66,5.26,5.26,0,0,1,1.43-3.72,9.38,9.38,0,0,1,4.1-2.4,19.58,19.58,0,0,1,6.1-.86q5.68,0,8.08,2.5t2.4,8v3.7Zm7.19,9.08a3.18,3.18,0,0,0,.39,1.77,1.43,1.43,0,0,0,1.28.58,3.38,3.38,0,0,0,1.44-.34,7.93,7.93,0,0,0,1.48-1l.89,1.72a11.38,11.38,0,0,1-3.16,1.73,11.27,11.27,0,0,1-3.78.62,6.58,6.58,0,0,1-4.3-1.2,4.53,4.53,0,0,1-1.43-3.7V37.34h7.19Z" transform="translate(-2.4 -9.96)"/><path class="cls-1" d="M78.39,37.34V30.09a4.59,4.59,0,0,0-.75-3,4.55,4.55,0,0,0-2.8-1.1l-1.35-.1v-2c.8,0,1.53.07,2.19.08s1.41,0,2.24,0q2.35,0,4.17-.18c1.22-.12,2.39-.29,3.5-.5V37.34ZM77.66,50.7l-4.17.1v-2L75,48.71a4,4,0,0,0,2.71-1.06,4.6,4.6,0,0,0,.73-2.95V37.34h7.2V44.7a4.6,4.6,0,0,0,.73,2.95,4.15,4.15,0,0,0,2.82,1.06l1.4.06v2l-4.17-.1q-2-.06-4.38-.06C80.39,50.64,79,50.66,77.66,50.7Zm4.28-32.18a4.82,4.82,0,0,1-3.21-1.13,3.75,3.75,0,0,1-1.33-3.05,3.69,3.69,0,0,1,1.36-3,5.33,5.33,0,0,1,6.54,0,3.72,3.72,0,0,1,1.33,3,3.74,3.74,0,0,1-1.35,3.05A5.08,5.08,0,0,1,81.94,18.52Z" transform="translate(-2.4 -9.96)"/><path class="cls-1" d="M87.21,63.27V61.39q4.64-.11,6.7-2.84T96,49.81V37.34h7.2V48.45a25.12,25.12,0,0,1-.71,6.21,11,11,0,0,1-2.4,4.67,10.76,10.76,0,0,1-4.82,2.92A26.46,26.46,0,0,1,87.21,63.27ZM96,37.34V30.09a4.8,4.8,0,0,0-.71-3A4.34,4.34,0,0,0,92.47,26l-1.35-.1v-2c.76,0,1.48.07,2.16.08s1.4,0,2.17,0c1.56,0,3-.06,4.25-.18a34,34,0,0,0,3.47-.5V37.34Zm3.6-18.82a4.82,4.82,0,0,1-3.21-1.13A3.75,3.75,0,0,1,95,14.34a3.69,3.69,0,0,1,1.36-3,4.94,4.94,0,0,1,3.23-1.12,5,5,0,0,1,3.31,1.12,3.72,3.72,0,0,1,1.33,3,3.74,3.74,0,0,1-1.35,3.05A5.08,5.08,0,0,1,99.57,18.52Z" transform="translate(-2.4 -9.96)"/><path class="cls-1" d="M116.47,51.53a8.28,8.28,0,0,1-5.56-1.8,6,6,0,0,1-2.11-4.82A6.07,6.07,0,0,1,110,41a9.08,9.08,0,0,1,3-2.4A25.86,25.86,0,0,1,116.86,37c1.34-.42,2.63-.81,3.88-1.17a10.9,10.9,0,0,0,3-1.33A2.78,2.78,0,0,0,125,32.34l.1,2.66a2.61,2.61,0,0,1-1.3,1.61c-.7.42-1.45.84-2.27,1.26s-1.62.85-2.4,1.3a6.45,6.45,0,0,0-2,1.77,4.72,4.72,0,0,0-.81,2.87,3.88,3.88,0,0,0,1,2.84,3.69,3.69,0,0,0,2.77,1,5.45,5.45,0,0,0,2.79-.78,7.76,7.76,0,0,0,2.42-2.4l.06,2.14a10.72,10.72,0,0,1-3.81,3.7A10.49,10.49,0,0,1,116.47,51.53Zm8.34-14.19V30.51a5.51,5.51,0,0,0-1.22-4,5.16,5.16,0,0,0-3.84-1.25,7.57,7.57,0,0,0-2.94.47c-.75.31-1.13.74-1.13,1.3a2.24,2.24,0,0,0,.45,1.2c.29.45.57.91.83,1.38a2.93,2.93,0,0,1,.39,1.43,2.34,2.34,0,0,1-1,2,4.11,4.11,0,0,1-2.53.76,3.85,3.85,0,0,1-2.87-1,3.57,3.57,0,0,1-1-2.66,5.22,5.22,0,0,1,1.43-3.72,9.39,9.39,0,0,1,4.09-2.4,19.69,19.69,0,0,1,6.11-.86q5.68,0,8.08,2.5t2.4,8v3.7Zm7.2,9.08a3.18,3.18,0,0,0,.39,1.77,1.43,1.43,0,0,0,1.28.58,3.33,3.33,0,0,0,1.43-.34,8,8,0,0,0,1.49-1l.89,1.72a11.38,11.38,0,0,1-3.16,1.73,11.27,11.27,0,0,1-3.78.62,6.57,6.57,0,0,1-4.3-1.2,4.54,4.54,0,0,1-1.44-3.7V37.34H132Z" transform="translate(-2.4 -9.96)"/><path class="cls-1" d="M134.25,63.27v-2a10.76,10.76,0,0,0,5.22-1.38,7,7,0,0,0,2.87-3.76,20.13,20.13,0,0,0,.88-6.54V37.76h7.93V46a24.73,24.73,0,0,1-1.72,10A10.73,10.73,0,0,1,144,61.54,23.36,23.36,0,0,1,134.25,63.27Zm9-25.51V20.39c0-1.63-.24-2.72-.73-3.26s-1.53-.87-3.13-1l-2.76-.21v-2c.87,0,1.85,0,3,.06s2.26.06,3.49.07l3.57,0h1.26l3.23,0c1.08,0,2.1,0,3.08-.07s1.8-.06,2.5-.06v2L155,16a10.16,10.16,0,0,0-2.38.63,2.07,2.07,0,0,0-1.12,1.2,7.71,7.71,0,0,0-.31,2.55V37.76Z" transform="translate(-2.4 -9.96)"/><path class="cls-1" d="M170.5,51.53a15.06,15.06,0,0,1-7-1.56,11.24,11.24,0,0,1-4.74-4.72A16.36,16.36,0,0,1,157,37.34a16.45,16.45,0,0,1,1.73-7.92,11,11,0,0,1,4.77-4.75,15,15,0,0,1,7-1.56,14.75,14.75,0,0,1,6.91,1.56,11.06,11.06,0,0,1,4.7,4.75,16.7,16.7,0,0,1,1.69,7.92,16.52,16.52,0,0,1-1.69,7.93,11.14,11.14,0,0,1-4.72,4.7A14.84,14.84,0,0,1,170.5,51.53Zm-.05-2c1.63,0,3-1,4.09-2.92s1.65-5,1.65-9.24-.55-7.42-1.65-9.33-2.46-2.87-4.09-2.87-3.1,1-4.2,2.87-1.64,5-1.64,9.33.55,7.38,1.64,9.29S168.75,49.5,170.45,49.5Z" transform="translate(-2.4 -9.96)"/><path class="cls-1" d="M189.9,37.34V16.79a4.72,4.72,0,0,0-.75-3,4.49,4.49,0,0,0-2.79-1.12l-1.36,0v-2c.8,0,1.53.06,2.19.07s1.41,0,2.24,0c1.57,0,3-.06,4.18-.18s2.38-.29,3.49-.5V37.34Zm7.2,11.58a11.24,11.24,0,0,0-5.22,1.33,16.34,16.34,0,0,0-2.13,1.38l-1.41-1.72a5.3,5.3,0,0,0,.94-1.27,5,5,0,0,0,.49-1.65,15.53,15.53,0,0,0,.13-2.19V37.34h7.2V48.92ZM205,23.16a9.87,9.87,0,0,1,5.84,1.69,11.11,11.11,0,0,1,3.75,4.83,18.38,18.38,0,0,1,1.36,7.4,18.52,18.52,0,0,1-1.51,7.8,11.34,11.34,0,0,1-4.28,5,12.06,12.06,0,0,1-6.52,1.72,10.41,10.41,0,0,1-4.62-1,7.43,7.43,0,0,1-2.94-2.43l.52-1.87A5.65,5.65,0,0,0,201.53,49a5.6,5.6,0,0,0,5.09-3c1.16-2,1.75-4.88,1.75-8.74,0-3.58-.52-6.31-1.54-8.21a4.83,4.83,0,0,0-4.46-2.84A5.78,5.78,0,0,0,199,27.38a6.65,6.65,0,0,0-2.32,3.18l-.47-1.4a8.69,8.69,0,0,1,3.34-4.46A9.58,9.58,0,0,1,205,23.16Z" transform="translate(-2.4 -9.96)"/></g></g></svg>